PathFileType	4	(X/Y/Z)	 s08c0303.trc
DataRate	CameraRate	NumFrames	NumMarkers	Units	OrigDataRate	OrigDataStartFrame	OrigNumFrames
200	200	4	50	mm	200	751	2000
Frame#	Time	racr			lacr			c7			jug			rlel			rdr			llel			ldr			s2			lic			ric			lasi			rasi			rpsi			lpsi			rgt			lgt			rth1			rth2			rth3			rth4			rlfc			rmfc			rsh1			rsh2			rsh3			rsh4			rlmal			rmmal			rcal			rtoe			rmt5			lth1			lth2			lth4			lth3			llfc			lmfc			llmal			lmmal			lcal			lmt5			lsh1			lsh2			lsh3			lsh4			ltoe			SBIKE			LBIKE			RBIKE			
		X1	Y1	Z1	X2	Y2	Z2	X3	Y3	Z3	X4	Y4	Z4	X5	Y5	Z5	X6	Y6	Z6	X7	Y7	Z7	X8	Y8	Z8	X9	Y9	Z9	X10	Y10	Z10	X11	Y11	Z11	X12	Y12	Z12	X13	Y13	Z13	X14	Y14	Z14	X15	Y15	Z15	X16	Y16	Z16	X17	Y17	Z17	X18	Y18	Z18	X19	Y19	Z19	X20	Y20	Z20	X21	Y21	Z21	X22	Y22	Z22	X23	Y23	Z23	X24	Y24	Z24	X25	Y25	Z25	X26	Y26	Z26	X27	Y27	Z27	X28	Y28	Z28	X29	Y29	Z29	X30	Y30	Z30	X31	Y31	Z31	X32	Y32	Z32	X33	Y33	Z33	X34	Y34	Z34	X35	Y35	Z35	X36	Y36	Z36	X37	Y37	Z37	X38	Y38	Z38	X39	Y39	Z39	X40	Y40	Z40	X41	Y41	Z41	X42	Y42	Z42	X43	Y43	Z43	X44	Y44	Z44	X45	Y45	Z45	X46	Y46	Z46	X47	Y47	Z47	X48	Y48	Z48	X49	Y49	Z49	X50	Y50	Z50	
751	3.7550	827.366610	1375.579798	-154.895563	769.068510	1370.818849	-463.022328	777.367018	1421.686496	-298.098494	759.659623	1260.910918	-302.102480	742.789310	1159.529842	22.479498	788.774533	887.565423	-41.857685	613.144388	1117.401722	-501.572343	787.350809	919.083695	-422.541162	219.960973	1267.077916	-145.897253	330.121143	1251.709059	-329.973246	420.155338	1232.935174	-28.909271	370.808933	1205.268577	-294.178942	411.949173	1167.248851	-68.119212	269.179199	1296.832571	-95.911571	249.116995	1308.474150	-191.596067	317.232840	1127.471018	20.344585	275.848113	1159.098121	-356.286673	386.143350	969.050409	3.114139	435.489913	896.215555	-9.618752	439.065860	809.247461	-17.259232	464.806879	907.871086	-26.705057	457.933552	694.930854	-35.538990	428.913831	697.734332	-144.813171	340.636149	629.812282	-6.979757	289.730086	559.528889	-31.308400	211.615295	523.840795	-37.743633	310.956727	542.562236	-62.507484	110.848639	457.429516	-48.388253	139.626038	461.298643	-137.206208	50.655880	505.907622	-99.598180	188.201410	239.260746	-102.403735	117.737333	302.871305	-35.307919	346.722565	1042.691117	-378.579701	413.857102	987.446604	-387.615545	443.766459	1007.138366	-378.932358	443.827622	903.995184	-395.462170	497.230441	782.701470	-385.398179	491.998544	750.007965	-277.116030	320.598486	398.939374	-389.751912	353.935317	411.879272	-304.886634	248.633957	380.428226	-352.291513	446.806036	303.133235	-420.345266	442.749055	664.383398	-411.306253	427.446801	581.213088	-396.609128	373.006015	512.471286	-396.678157	451.769282	573.614022	-365.902545	532.576098	327.446570	-354.951602	-199.673076	920.985810	-223.706573	-7.830760	83.276121	-426.043814	-10.497211	80.314525	-27.761597	
752	3.7600	827.115056	1374.636612	-154.344251	771.219068	1366.991355	-461.813393	778.410479	1418.922354	-296.848998	761.257402	1258.071920	-300.007112	741.384237	1159.211534	23.346534	788.994930	887.525289	-41.225695	613.315074	1115.228771	-502.701621	787.047623	917.925166	-422.069312	219.296370	1264.529378	-146.515809	330.091428	1247.685677	-331.343672	419.215622	1230.604665	-30.208737	370.271448	1201.711996	-295.005869	410.922550	1165.275012	-69.188161	269.034142	1294.006158	-98.462476	248.685546	1305.354368	-192.641225	317.116630	1125.636456	20.271922	274.466006	1154.429539	-356.563287	387.991502	968.967332	3.945063	438.245122	897.161095	-9.404509	444.488274	810.223529	-16.367012	467.831366	909.561307	-26.807057	465.484933	697.288043	-35.949475	435.846343	699.809361	-144.972846	346.939063	634.428478	-7.288011	295.100327	565.468033	-31.126149	215.535865	531.485737	-38.131360	314.806652	548.003429	-63.000431	113.493850	467.913452	-48.659418	142.542115	470.849683	-136.753669	53.594488	517.107632	-99.808601	188.963337	249.269856	-102.488391	119.033335	313.552499	-35.408223	344.283266	1036.729768	-378.653750	410.221367	980.117167	-387.306881	440.569070	999.188412	-378.724373	438.507880	896.043197	-394.599890	490.169791	774.180332	-383.968191	483.552375	742.085161	-275.837952	319.149311	387.520494	-390.106673	347.737176	397.940097	-311.757508	247.746131	368.711085	-352.201556	445.796000	291.979293	-420.219852	437.468141	654.488691	-410.454737	423.752354	572.468410	-398.213932	370.394351	501.134433	-396.053161	447.374751	564.260774	-364.317557	531.477814	316.148570	-354.398076	-199.473330	921.093258	-223.518650	-7.753480	83.308915	-426.082368	-10.396863	80.319782	-27.787673	
753	3.7650	826.662428	1373.866204	-153.462226	773.494512	1363.717848	-461.554933	779.299391	1416.590689	-295.599845	762.964884	1255.651019	-298.313933	739.767312	1159.255580	24.856189	789.766460	887.676895	-40.104728	613.966832	1112.775401	-503.894060	786.620090	915.452580	-419.829129	218.613718	1262.018961	-147.588739	330.244373	1243.665870	-332.978655	418.162733	1228.629810	-31.584123	369.893719	1197.953689	-295.986367	409.892853	1163.462480	-70.190589	268.879526	1291.447901	-101.479569	246.030367	1302.997502	-192.448133	316.825521	1124.040584	20.123812	273.291016	1149.429640	-357.083187	389.789040	968.760741	4.888044	441.790378	898.391996	-8.712085	450.127565	811.584089	-15.824852	470.970594	911.552752	-26.585008	473.368533	699.879757	-37.070109	442.726059	702.370908	-145.522497	353.703586	639.412293	-7.472068	300.181184	571.566035	-31.543907	219.591960	539.439134	-38.845149	319.782831	553.875565	-63.203290	116.647830	478.307769	-48.983779	145.856666	480.774941	-137.145369	57.051654	528.130618	-99.859257	190.325959	259.218138	-102.742616	120.949801	324.259097	-35.372317	341.729398	1030.522356	-378.791983	406.518905	972.547568	-387.016158	437.274836	991.142460	-378.622662	433.091123	887.906531	-393.633297	483.174807	765.492624	-382.538271	475.021302	734.086699	-274.617068	317.085468	376.656363	-390.049989	347.660693	389.237534	-312.664306	246.129955	357.886599	-352.147469	444.129928	280.998131	-420.011423	432.461616	644.777805	-408.941666	419.728455	562.724042	-397.091120	367.470307	490.462889	-395.337241	443.025857	554.991184	-362.906218	529.833686	305.013031	-354.091530	-199.414970	921.108031	-223.398252	-7.739634	83.318510	-426.073833	-10.357765	80.311199	-27.809263	
754	3.7700	826.050686	1373.290514	-152.401035	775.536276	1360.374831	-460.120224	779.994087	1414.457808	-294.478229	764.000992	1253.473546	-296.135504	738.052134	1159.398735	26.520152	789.580764	887.646309	-40.028543	615.036894	1110.431352	-505.188600	786.421981	913.961626	-418.677071	218.001406	1259.535938	-149.111337	330.845905	1239.180498	-334.720031	416.994212	1227.169175	-32.921211	369.687068	1194.002396	-297.127662	408.899907	1161.708561	-71.019322	267.889557	1289.588347	-102.651167	245.741971	1299.846076	-194.343313	316.247701	1122.776832	19.694762	272.305479	1144.196002	-357.710129	391.587006	968.731536	5.884924	445.575636	899.757844	-7.963298	456.244850	813.086230	-16.181667	474.323070	913.784033	-25.933633	481.860139	703.124042	-37.220247	449.475947	705.765293	-146.191341	360.030894	644.682997	-8.786835	305.608936	577.695699	-32.183092	224.483657	547.177785	-39.244284	324.860612	559.800737	-63.862623	120.321646	488.633178	-49.228860	149.712060	490.401647	-137.456060	60.940275	539.028448	-99.929948	192.281486	269.424558	-102.730800	123.530906	334.699145	-35.474929	339.042373	1023.741752	-378.656642	402.708967	964.756557	-386.709118	433.796543	982.828763	-378.643456	427.668378	879.512542	-392.492179	476.091550	756.584725	-380.990825	466.350030	726.045723	-273.468995	314.625678	366.176338	-389.887784	360.497306	389.662984	-319.625360	243.884146	347.391348	-352.054452	441.701687	270.168437	-419.838449	427.097177	635.423774	-407.570053	415.351748	553.081268	-396.077983	363.883401	480.259811	-394.236504	438.452914	545.660674	-361.492709	527.483170	293.754721	-353.891676	-199.505118	920.977557	-223.557625	-7.736663	83.271028	-426.113781	-10.329599	80.158754	-27.955739	
